<svg width="103" height="32" viewBox="0 0 103 32" fill="none" xmlns="http://www.w3.org/2000/svg">
    <path d="M14.6152 6.00244H11.6644C11.4747 6.00244 11.319 6.15825 11.319 6.34815L11.3871 17.3865C11.3871 17.4571 11.2971 17.4815 11.2582 17.423L4.08194 6.27268C3.97491 6.10469 3.78759 6.00244 3.58812 6.00244H0.345432C0.155687 6.00244 0 6.15825 0 6.34815V23.5289C0 23.7188 0.155687 23.8746 0.345432 23.8746H3.2962C3.48595 23.8746 3.64164 23.7188 3.64164 23.5289V12.5977C3.64164 12.5295 3.73164 12.5027 3.76813 12.5612L10.8763 23.6044C10.9833 23.7724 11.1706 23.8746 11.3701 23.8746H14.6128C14.8025 23.8746 14.9582 23.7188 14.9582 23.5289V6.34815C14.9582 6.15582 14.8049 6.00244 14.6152 6.00244Z"
          fill="#FE5000"/>
    <path d="M64.175 12.8825C63.2677 11.7407 61.8032 11.1613 60.2172 11.1613C59.9155 11.1613 59.4582 11.2173 59.1249 11.3219C58.7819 11.4291 58.2662 11.7139 57.9573 12.0134C57.9135 12.0572 57.8381 12.0231 57.8381 11.9622V11.7407C57.8381 11.5508 57.6824 11.395 57.4926 11.395H54.5808C54.391 11.395 54.2354 11.5508 54.2354 11.7407V23.5289C54.2354 23.7188 54.391 23.8746 54.5808 23.8746H57.4951C57.6848 23.8746 57.8405 23.7188 57.8405 23.5289C57.8405 23.5289 57.8527 16.3445 57.8527 16.2714C57.8527 15.1515 58.7746 14.4893 59.8231 14.4893C61.0929 14.4893 61.7376 15.3925 61.8057 16.3907C61.8057 16.398 61.8081 23.5289 61.8081 23.5289C61.8081 23.7188 61.9638 23.8746 62.1535 23.8746H65.0654C65.2551 23.8746 65.4108 23.7188 65.4108 23.5289V17.423C65.4084 15.3341 65.0362 13.9659 64.175 12.8825Z"
          fill="#FE5000"/>
    <path d="M51.9365 11.395H49.0296C48.8374 11.395 48.6817 11.5508 48.6817 11.7431V11.9574C48.6817 12.0158 48.616 12.0499 48.5674 12.0158C47.7816 11.4485 46.8134 11.1393 45.8817 11.1393C44.2689 11.1393 42.8337 11.6896 41.6125 12.7778C40.1967 14.0487 39.4791 15.6774 39.4791 17.6226C39.4791 19.3098 40.0337 20.7803 41.1284 21.9975C42.3982 23.4145 43.9965 24.1327 45.8817 24.1327C46.8183 24.1327 47.7208 23.8308 48.5747 23.3171C48.6233 23.2879 48.6817 23.322 48.6817 23.378V23.5265C48.6817 23.7188 48.8374 23.8746 49.0296 23.8746H51.9365C52.1287 23.8746 52.2844 23.7188 52.2844 23.5265V11.7431C52.2844 11.5508 52.1287 11.395 51.9365 11.395ZM45.9328 20.7949C45.1519 20.7949 44.5073 20.5295 43.96 19.9793C43.4029 19.4218 43.1207 18.6281 43.1207 17.6226C43.1207 16.7632 43.3299 16.0572 43.7435 15.5289C44.303 14.818 45.0036 14.4747 45.8842 14.4747C46.721 14.4747 47.3778 14.7352 47.8911 15.2733C48.4433 15.8478 48.723 16.6342 48.723 17.6104C48.723 18.4723 48.5163 19.1881 48.11 19.7334C47.5651 20.4467 46.8548 20.7949 45.9328 20.7949Z"
          fill="#FE5000"/>
    <path d="M29.189 11.395H26.282C26.0899 11.395 25.9342 11.5508 25.9342 11.7431V11.9574C25.9342 12.0158 25.8685 12.0499 25.8198 12.0158C25.0341 11.4485 24.0659 11.1393 23.1342 11.1393C21.5214 11.1393 20.0862 11.6896 18.865 12.7778C17.4492 14.0487 16.7316 15.6774 16.7316 17.6226C16.7316 19.3098 17.2862 20.7803 18.3809 21.9975C19.6507 23.4145 21.2489 24.1327 23.1342 24.1327C24.0708 24.1327 24.9733 23.8308 25.8271 23.3171C25.8758 23.2879 25.9342 23.322 25.9342 23.378V23.5265C25.9342 23.7188 26.0899 23.8746 26.282 23.8746H29.189C29.3812 23.8746 29.5369 23.7188 29.5369 23.5265V11.7431C29.5393 11.5508 29.3812 11.395 29.189 11.395ZM23.1877 20.7949C22.4069 20.7949 21.7622 20.5295 21.2149 19.9793C20.6578 19.4218 20.3756 18.6281 20.3756 17.6226C20.3756 16.7632 20.5848 16.0572 20.9984 15.5289C21.5579 14.818 22.2585 14.4747 23.1391 14.4747C23.9759 14.4747 24.6327 14.7352 25.146 15.2733C25.6982 15.8478 25.978 16.6342 25.978 17.6104C25.978 18.4723 25.7712 19.1881 25.3649 19.7334C24.82 20.4467 24.1073 20.7949 23.1877 20.7949Z"
          fill="#FE5000"/>
    <path d="M84.9618 11.395H82.0548C81.8627 11.395 81.707 11.5508 81.707 11.7431V11.9574C81.707 12.0158 81.6413 12.0499 81.5926 12.0158C80.8069 11.4485 79.8387 11.1393 78.907 11.1393C77.2942 11.1393 75.8589 11.6896 74.6378 12.7778C73.222 14.0487 72.5044 15.6774 72.5044 17.6226C72.5044 19.3098 73.059 20.7803 74.1537 21.9975C75.4235 23.4145 77.0217 24.1327 78.907 24.1327C79.8436 24.1327 80.7461 23.8308 81.5999 23.3171C81.6486 23.2879 81.707 23.322 81.707 23.378V23.5265C81.707 23.7188 81.8627 23.8746 82.0548 23.8746H84.9618C85.154 23.8746 85.3097 23.7188 85.3097 23.5265V11.7431C85.3097 11.5508 85.154 11.395 84.9618 11.395ZM78.9581 20.7949C78.1772 20.7949 77.5326 20.5295 76.9853 19.9793C76.4282 19.4218 76.146 18.6281 76.146 17.6226C76.146 16.7632 76.3552 16.0572 76.7688 15.5289C77.3283 14.818 78.0288 14.4747 78.9095 14.4747C79.7463 14.4747 80.4031 14.7352 80.9164 15.2733C81.4686 15.8478 81.7483 16.6342 81.7483 17.6104C81.7483 18.4723 81.5416 19.1881 81.1353 19.7334C80.5904 20.4467 79.8776 20.7949 78.9581 20.7949Z"
          fill="#FE5000"/>
    <path d="M37.5621 11.4437C36.9151 11.4437 36.1585 11.7383 35.7182 12.0865C35.672 12.123 35.6039 12.0913 35.6039 12.0305V11.7383C35.6039 11.5484 35.4482 11.3926 35.2584 11.3926H32.3466C32.1569 11.3926 32.0012 11.5484 32.0012 11.7383V23.5265C32.0012 23.7164 32.1569 23.8722 32.3466 23.8722H35.2584C35.4482 23.8722 35.6039 23.7164 35.6039 23.5265V17.8491C35.6039 16.6367 35.7547 15.7968 36.0466 15.3561C36.3142 14.9641 36.8323 14.7645 37.5865 14.7645C37.7884 14.7645 38.1216 14.7669 38.6179 14.8156C38.8101 14.8327 38.9779 14.6525 38.9706 14.4553V11.86C38.9706 11.6848 38.8393 11.5363 38.6641 11.5168C38.236 11.4681 37.8638 11.4437 37.5621 11.4437Z"
          fill="#FE5000"/>
    <path d="M70.894 6.64028C70.4634 6.2264 69.9525 6.01703 69.3736 6.01703C68.7751 6.01703 68.2521 6.22153 67.8143 6.62811C67.3861 7.04198 67.1696 7.55081 67.1696 8.14485C67.1696 8.75349 67.3861 9.27449 67.8118 9.6835C68.2278 10.0998 68.746 10.3116 69.3492 10.3116C69.9452 10.3116 70.4658 10.1022 70.8988 9.6835C71.3148 9.26475 71.5264 8.75349 71.5264 8.15945C71.5264 7.58733 71.3172 7.08094 70.9037 6.65002C70.8988 6.64515 70.8964 6.64271 70.894 6.64028Z"
          fill="#FE5000"/>
    <path d="M70.7991 11.3974H67.8872C67.6975 11.3974 67.5418 11.5532 67.5418 11.7431V24.1253C67.5296 24.6414 67.301 26.3335 64.9486 26.4966C64.7686 26.5088 64.6299 26.6621 64.6299 26.8447V29.6445V29.6518V29.6591C64.6299 29.6615 64.6299 29.6615 64.6299 29.664C64.6372 29.8514 64.7881 29.9999 64.9754 29.9999H64.9973C65.5835 29.9707 70.8502 29.569 71.1323 24.4783C71.1396 24.4515 71.1445 24.4223 71.1445 24.3907V11.7455C71.1445 11.5532 70.9888 11.3974 70.7991 11.3974Z"
          fill="#FE5000"/>
    <path d="M91.9726 6.30676C91.8559 6.12417 91.6369 6.00244 91.4204 6.00244H88.0488C87.7764 6.00244 87.6134 6.30433 87.7593 6.53318L93.1452 14.8619C93.1744 14.9081 93.1744 14.9665 93.1452 15.0128L87.7593 23.3439C87.6109 23.5728 87.7764 23.8746 88.0464 23.8746H91.4326C91.6491 23.8746 91.8486 23.7651 91.9653 23.5849L97.2247 15.4096C97.4095 15.1224 97.4095 14.7523 97.2247 14.465L91.9726 6.30676Z"
          fill="#FE5000"/>
    <path d="M98.3048 16.1424C98.2488 16.0572 98.1247 16.0572 98.0688 16.1424L96.31 18.874C96.1251 19.1613 96.1251 19.5313 96.31 19.8186L98.6964 23.524C98.8375 23.7432 99.0783 23.8746 99.3362 23.8746H102.652C102.924 23.8746 103.09 23.5727 102.941 23.3439L98.3048 16.1424Z"
          fill="#50007F"/>
    <path d="M98.6989 6.35058L96.3125 10.056C96.1276 10.3433 96.1276 10.7133 96.3125 11.0006L98.0712 13.7346C98.1248 13.8198 98.2488 13.8198 98.3023 13.7346L102.946 6.521C103.09 6.29702 102.929 6 102.664 6H99.3386C99.0784 6.00243 98.8375 6.1339 98.6989 6.35058Z"
          fill="#50007F"/>
</svg>
